<?xml version="1.0" encoding="UTF-8"?>
<svg width="24px" height="24px" viewBox="0 0 24 24" version="1.1" xmlns="http://www.w3.org/2000/svg" xmlns:xlink="http://www.w3.org/1999/xlink">
    <!-- Generator: Sketch 63.1 (92452) - https://sketch.com -->
    <title>PT/Icons/Logout</title>
    <desc>Created with Sketch.</desc>
    <g id="PT/Icons/Logout" stroke="none" stroke-width="1" fill="none" fill-rule="evenodd">
        <path d="M12,2 C6.4856775,2 2,6.4856775 2,12 C2,17.5143233 6.4856775,22 12,22 C16.6484375,22 20.5481775,18.8066408 21.6614583,14.5 L19.9427083,14.5 C18.878255,17.8789067 15.7239583,20.3333333 12,20.3333333 C7.40364583,20.3333333 3.66666667,16.5963542 3.66666667,12 C3.66666667,7.40364583 7.40364583,3.66666667 12,3.66666667 C15.7239583,3.66666667 18.878255,6.12109417 19.9427083,9.5 L21.6614583,9.5 C20.5481775,5.19335917 16.6484375,2 12,2 Z M12.546875,8.06770833 L9.21354167,11.4010417 L8.640625,12 L9.21354167,12.5989583 L12.546875,15.9322917 L13.7447917,14.734375 L11.84375,12.8333333 L22,12.8333333 L22,11.1666667 L11.84375,11.1666667 L13.7447917,9.265625 L12.546875,8.06770833 Z" id="Shape" fill="#FFFFFF" fill-rule="nonzero"></path>
    </g>
</svg>